Coordinates
version=1
nRows=19
nColumns=24
inDegrees=yes

Units are S.I. units (second, meters, Newtons, ...)
Angles are in degrees.

endheader
time	pelvis_tilt	pelvis_list	pelvis_rotation	pelvis_tx	pelvis_ty	pelvis_tz	hip_flexion_r	hip_adduction_r	hip_rotation_r	knee_angle_r	ankle_angle_r	subtalar_angle_r	mtp_angle_r	hip_flexion_l	hip_adduction_l	hip_rotation_l	knee_angle_l	ankle_angle_l	subtalar_angle_l	mtp_angle_l	lumbar_extension	lumbar_bending	lumbar_rotation
      3.64500000	     -9.38020517	     -7.74551921	      4.26391199	     -2.70318593	     -0.01371437	      0.45003226	     17.36345914	      8.85253446	     -9.07967633	    -11.49473206	     -5.99038987	     -4.90795984	      4.08312232	     19.98583929	     -8.88189485	      3.01868540	    -61.84705404	    -25.34910048	    -14.51130452	     18.63340749	      7.37282131	      7.73046854	     -6.46364229
      3.65000000	     -9.30589348	     -7.41865276	      4.23796820	     -2.69790078	     -0.01295495	      0.45073582	     16.84262864	      8.64979234	     -8.80680797	    -11.42985609	     -5.74301027	     -5.06867839	      4.04117050	     20.63251022	     -8.41385140	      3.09350706	    -62.18006840	    -24.71952619	    -14.92572508	     18.70271296	      7.24533685	      7.35264581	     -6.26708331
      3.65500000	     -9.21821855	     -7.00813401	      4.02201903	     -2.69261327	     -0.01212425	      0.45169616	     16.31106866	      8.42848643	     -8.27386769	    -11.40579724	     -5.56792171	     -5.39078483	      3.81440756	     21.17199683	     -7.95257315	      2.90359273	    -62.37997140	    -23.98266052	    -15.17633770	     18.71297429	      7.07186525	      6.91025442	     -5.83202239
      3.66000000	     -9.17258515	     -6.59552743	      3.89259272	     -2.68735368	     -0.01133972	      0.45251497	     15.82364869	      8.16417422	     -7.82183535	    -11.36616995	     -5.38129946	     -5.68657212	      3.62652555	     21.76877298	     -7.44444237	      2.81246664	    -62.49513302	    -23.21381989	    -15.27325705	     18.83857677	      6.96227286	      6.45304834	     -5.52867585
      3.66500000	     -9.15307076	     -6.15146366	      3.75238859	     -2.68214572	     -0.01057213	      0.45329036	     15.38183787	      7.85341920	     -7.40606673	    -11.35257775	     -5.18343922	     -5.93856544	      3.47943071	     22.37162217	     -6.90431132	      2.68935220	    -62.50767840	    -22.43633181	    -15.29121685	     19.04805954	      6.87680717	      5.97220500	     -5.23076532
      3.67000000	     -9.14832796	     -5.70726328	      3.58061779	     -2.67693514	     -0.00983412	      0.45414488	     14.94171969	      7.55414231	     -6.90239698	    -11.31365846	     -5.00707798	     -6.23551971	      3.25331658	     22.96661676	     -6.38649275	      2.53753107	    -62.43127538	    -21.58823291	    -15.13759342	     19.32097797	      6.80928155	      5.48503816	     -4.91592216
      3.67500000	     -9.16947620	     -5.22755465	      3.38031225	     -2.67179162	     -0.00912709	      0.45494403	     14.55931098	      7.19775853	     -6.48382009	    -11.31570800	     -4.77567139	     -6.38316197	      3.18705509	     23.56548318	     -5.83551238	      2.33703382	    -62.25696102	    -20.81273802	    -15.02435792	     19.60495131	      6.75952019	      4.97700610	     -4.56656931
      3.68000000	     -9.19766932	     -4.77025067	      3.17037964	     -2.66661026	     -0.00846533	      0.45573639	     14.16389321	      6.86372525	     -6.04427874	    -11.27473315	     -4.55809816	     -6.53553003	      3.08373556	     24.15739480	     -5.32256281	      2.12141798	    -62.00709346	    -20.01663242	    -14.83097828	     19.90625380	      6.73340195	      4.49507055	     -4.21901192
      3.68500000	     -9.22915568	     -4.32922631	      2.95018251	     -2.66148250	     -0.00785899	      0.45651108	     13.78321404	      6.53874786	     -5.63312394	    -11.23791568	     -4.34023991	     -6.65279423	      3.01044651	     24.74634916	     -4.83430402	      1.89613777	    -61.69104200	    -19.24526394	    -14.64525979	     20.16737029	      6.70739054	      4.03487337	     -3.87887874
      3.69000000	     -9.26195217	     -3.91911003	      2.71488074	     -2.65633316	     -0.00732012	      0.45725483	     13.39245194	      6.24048835	     -5.23453174	    -11.16956228	     -4.11369472	     -6.73177423	      2.96141256	     25.32732657	     -4.39349344	      1.65173821	    -61.31518071	    -18.50346740	    -14.46635709	     20.37923797	      6.69414080	      3.61843096	     -3.53220047
      3.69500000	     -9.29095273	     -3.53739450	      2.46881106	     -2.65121025	     -0.00684501	      0.45797627	     13.00460742	      5.96489622	     -4.86854862	    -11.09957668	     -3.88905154	     -6.77590476	      2.94344500	     25.89721745	     -3.99126592	      1.40341787	    -60.88199190	    -17.80111728	    -14.33614071	     20.52593073	      6.67796756	      3.23592033	     -3.18590473
      3.70000000	     -9.31211948	     -3.19851779	      2.20638142	     -2.64604702	     -0.00644518	      0.45866975	     12.59104105	      5.73067183	     -4.50092279	    -10.99077260	     -3.65496486	     -6.78799459	      2.93932781	     26.45274786	     -3.65467668	      1.13381498	    -60.40407718	    -17.13588053	    -14.22843624	     20.60210712	      6.66631187	      2.90877057	     -2.82821095
      3.70500000	     -9.32518090	     -2.89030545	      1.94907724	     -2.64092298	     -0.00611560	      0.45932390	     12.18123010	      5.51917442	     -4.17227940	    -10.89280741	     -3.42581895	     -6.79008207	      2.94978964	     26.99655237	     -3.35127504	      0.88066433	    -59.87584911	    -16.51478525	    -14.19454304	     20.60705960	      6.64442668	      2.61496890	     -2.49145906
      3.71000000	     -9.34464880	     -2.62623894	      1.73550695	     -2.63572405	     -0.00588752	      0.45989180	     11.74076694	      5.33858477	     -3.85178107	    -10.72846943	     -3.16446802	     -6.78196895	      2.97379970	     27.55283669	     -3.08322265	      0.67271080	    -59.31366091	    -15.98960694	    -14.21772979	     20.56946865	      6.65095361	      2.36734936	     -2.23293770
      3.71500000	     -9.30841727	     -2.39673666	      1.36472375	     -2.63054397	     -0.00564876	      0.46061229	     11.26951002	      5.22347252	     -3.47219790	    -10.60295519	     -2.95362938	     -6.72385327	      2.96873021	     28.00955614	     -2.95176103	      0.29975257	    -58.69671609	    -15.37235581	    -14.20230634	     20.37593519	      6.58542397	      2.18442343	     -1.75444547
      3.72000000	     -9.28011919	     -2.19009243	      1.07975731	     -2.62534582	     -0.00550076	      0.46120240	     10.78676873	      5.10752683	     -3.13192884	    -10.44432036	     -2.72375300	     -6.70332280	      2.95143262	     28.48395134	     -2.80406394	      0.02028801	    -58.04489105	    -14.83019653	    -14.23779839	     20.09794714	      6.53997801	      2.01496162	     -1.40713464
      3.72500000	     -9.24218265	     -2.01012719	      0.79164418	     -2.62015620	     -0.00541144	      0.46176496	     10.29347813	      5.01359901	     -2.79423196	    -10.28105002	     -2.49425737	     -6.68133478	      2.93060906	     28.94016394	     -2.69505944	     -0.25756770	    -57.35126152	    -14.31352288	    -14.30038210	     19.75390077	      6.48293021	      1.87784840	     -1.06726251
      3.73000000	     -9.21442367	     -1.83484018	      0.53069735	     -2.61497076	     -0.00538303	      0.46227057	      9.81943332	      4.91180318	     -2.47436741	    -10.13545767	     -2.25566189	     -6.67608142	      2.91959431	     29.39173298	     -2.58040265	     -0.49586544	    -56.59227124	    -13.84180745	    -14.39608952	     19.42856031	      6.43978412	      1.74363640	     -0.78003000
      3.73500000	     -9.14592843	     -1.69380450	      0.23220362	     -2.60976057	     -0.00535441	      0.46283066	      9.28221032	      4.85199872	     -2.13810399	     -9.94749529	     -2.04537112	     -6.65731806	      2.86961251	     29.78870299	     -2.54987598	     -0.80409124	    -55.80630578	    -13.38493656	    -14.46265662	     18.92807449	      6.35450430	      1.64825497	     -0.40951402
